HIERARCHY
ROOT Pelvis
{
	OFFSET 0.000000 0.000000 0.000000
	CHANNELS 6 Xposition Yposition Zposition Xrotation Yrotation Zrotation
	JOINT LeftUpLeg_virtual
	{
		OFFSET 0.000000 0.000000 0.000000
		CHANNELS 3 Xrotation Yrotation Zrotation
		JOINT LeftUpLeg
		{
			OFFSET 18.735201 -5.666702 -4.541200
			CHANNELS 3 Xrotation Yrotation Zrotation
			JOINT LeftLeg
			{
				OFFSET -0.021200 -31.938179 0.493100
				CHANNELS 3 Xrotation Yrotation Zrotation
				JOINT LeftFoot
				{
					OFFSET 0.021200 -31.938179 -4.336299
					CHANNELS 3 Xrotation Yrotation Zrotation
					JOINT LeftToeBase
					{
						OFFSET 0.943001 -26.722000 15.023500
						CHANNELS 3 Xrotation Yrotation Zrotation
						End Site
						{
							OFFSET 0 0 0
						}
					}
				}
			}
		}
	}
	JOINT RightUpLeg_virtual
	{
		OFFSET 0.000000 0.000000 0.000000
		CHANNELS 3 Xrotation Yrotation Zrotation
		JOINT RightUpLeg
		{
			OFFSET -18.735201 -5.666702 -4.541200
			CHANNELS 3 Xrotation Yrotation Zrotation
			JOINT RightLeg
			{
				OFFSET 0.018946 -31.938133 0.493100
				CHANNELS 3 Xrotation Yrotation Zrotation
				JOINT RightFoot
				{
					OFFSET -0.018946 -31.938126 -4.336299
					CHANNELS 3 Xrotation Yrotation Zrotation
					JOINT RightToeBase
					{
						OFFSET -0.943001 -26.722004 15.023500
						CHANNELS 3 Xrotation Yrotation Zrotation
						End Site
						{
							OFFSET 0 0 0
						}
					}
				}
			}
		}
	}
	JOINT Hips_virtual
	{
		OFFSET 0.000000 0.000000 0.000000
		CHANNELS 3 Xrotation Yrotation Zrotation
		JOINT Hips
		{
			OFFSET -0.000000 -0.000000 -0.000000
			CHANNELS 3 Xrotation Yrotation Zrotation
			JOINT Spine
			{
				OFFSET 0.000000 10.199997 -0.299500
				CHANNELS 3 Xrotation Yrotation Zrotation
				JOINT Spine1
				{
					OFFSET 0.000000 11.900002 -1.516600
					CHANNELS 3 Xrotation Yrotation Zrotation
					JOINT Spine2
					{
						OFFSET 0.000000 13.600006 -2.842500
						CHANNELS 3 Xrotation Yrotation Zrotation
						JOINT Neck_virtual
						{
							OFFSET 0.000000 0.000000 0.000000
							CHANNELS 3 Xrotation Yrotation Zrotation
							JOINT Neck
							{
								OFFSET 0.000000 9.624100 -2.890100
								CHANNELS 3 Xrotation Yrotation Zrotation
								JOINT Head
								{
									OFFSET 0.000000 14.068802 -1.351900
									CHANNELS 3 Xrotation Yrotation Zrotation
									End Site
									{
										OFFSET 0 0 0
									}
								}
							}
						}
						JOINT LeftShoulder_virtual
						{
							OFFSET 0.000000 0.000000 0.000000
							CHANNELS 3 Xrotation Yrotation Zrotation
							JOINT LeftShoulder
							{
								OFFSET 15.263000 10.923401 -0.547700
								CHANNELS 3 Xrotation Yrotation Zrotation
								JOINT LeftArm
								{
									OFFSET 25.438599 -2.830597 -13.032500
									CHANNELS 3 Xrotation Yrotation Zrotation
									JOINT LeftForeArm
									{
										OFFSET 29.960503 0.000000 0.000000
										CHANNELS 3 Xrotation Yrotation Zrotation
										JOINT LeftHand
										{
											OFFSET 27.849251 0.000000 0.000000
											CHANNELS 3 Xrotation Yrotation Zrotation
											End Site
											{
												OFFSET 0 0 0
											}
										}
									}
								}
							}
						}
						JOINT RightShoulder_virtual
						{
							OFFSET 0.000000 0.000000 0.000000
							CHANNELS 3 Xrotation Yrotation Zrotation
							JOINT RightShoulder
							{
								OFFSET -15.263000 10.923401 -0.547700
								CHANNELS 3 Xrotation Yrotation Zrotation
								JOINT RightArm
								{
									OFFSET -25.438599 -2.830597 -13.032500
									CHANNELS 3 Xrotation Yrotation Zrotation
									JOINT RightForeArm
									{
										OFFSET -29.960503 0.000000 0.000000
										CHANNELS 3 Xrotation Yrotation Zrotation
										JOINT RightHand
										{
											OFFSET -27.849251 0.000000 0.000000
											CHANNELS 3 Xrotation Yrotation Zrotation
											End Site
											{
												OFFSET 0 0 0
											}
										}
									}
								}
							}
						}
					}
				}
			}
		}
	}
}
MOTION
Frames: 8
Frame Time: 0.03333333
-3.916342 83.270332 2.332077 0.000000 0.000000 0.000000 3.004790 -58.203259 6.441861 -38.300877 6.311306 29.650691 47.035763 -9.823090 -10.645449 -10.051025 -1.875879 -11.958305 0.000000 0.000000 0.000000 3.004790 -58.203259 6.441861 -34.545990 -3.812177 -30.706242 55.039177 4.468469 -7.825074 -22.927941 0.222210 25.858335 0.000000 0.000000 0.000000 3.004790 -58.203259 6.441861 0.000000 0.000001 0.000000 11.191384 0.081120 -2.661050 8.434589 0.027702 -5.592321 0.000000 0.000000 0.000000 8.457049 0.027853 -5.591867 -3.775694 5.323455 1.581321 0.000000 0.000000 0.000000 8.457049 0.027853 -5.591867 -6.221658 -11.503848 -4.023809 -23.062118 9.568707 -36.639652 0.046167 -43.169439 -0.011137 0.000000 0.000000 0.000000 8.457049 0.027853 -5.591867 -5.488243 10.658284 2.466535 -41.473783 -26.755630 30.079091 -155.044693 68.136908 156.691711 0.000000 0.000000 0.000000 
-3.903948 83.258072 2.312891 0.000000 0.000000 0.000000 3.029416 -58.177311 6.425433 -38.397080 6.283241 29.701173 47.078851 -9.881789 -10.632164 -10.031162 -1.871782 -11.956825 0.000000 0.000000 0.000000 3.029416 -58.177311 6.425433 -34.548026 -3.802009 -30.672863 55.048862 4.449614 -7.803518 -22.936516 0.204008 25.913410 0.000000 0.000000 0.000000 3.029416 -58.177311 6.425433 0.000000 0.000000 0.000000 11.154572 0.097491 -2.618552 8.361918 0.067336 -5.504499 0.000000 0.000000 0.000000 8.384386 0.067493 -5.504037 -3.658579 5.339740 1.581940 0.000000 0.000000 0.000000 8.384386 0.067493 -5.504037 -5.897217 -11.434713 -4.094844 -23.105792 9.541861 -36.578170 -0.430867 -43.369092 0.211651 0.000000 0.000000 0.000000 8.384386 0.067493 -5.504037 -5.087702 10.716890 2.386531 -41.616708 -26.593133 29.801410 -152.951295 68.123835 154.689031 0.000000 0.000000 0.000000 
-3.888117 83.236717 2.293919 0.000000 0.000000 0.000000 3.066685 -58.161540 6.425296 -38.503129 6.247708 29.749787 47.152009 -9.922016 -10.620518 -10.028815 -1.869494 -11.960366 0.000000 0.000000 0.000000 3.066685 -58.161540 6.425296 -34.577081 -3.773140 -30.639696 55.085220 4.436032 -7.799560 -22.949159 0.177875 25.986851 0.000000 0.000000 0.000000 3.066685 -58.161540 6.425296 0.000000 -0.000002 0.000000 11.182253 0.111812 -2.585324 8.418542 0.098064 -5.435018 0.000000 0.000000 0.000000 8.441002 0.098159 -5.434539 -3.605985 5.352905 1.579602 0.000000 0.000000 0.000000 8.441002 0.098159 -5.434539 -5.908037 -11.406755 -4.124969 -23.202750 9.567583 -36.508372 -0.784466 -43.550075 0.142530 0.000000 0.000000 0.000000 8.441002 0.098159 -5.434539 -4.944350 10.745133 2.290180 -41.728132 -26.359913 29.303711 -148.759813 67.825363 150.764309 0.000000 0.000000 0.000000 
-3.870076 83.216782 2.276159 0.000000 0.000000 0.000000 3.109665 -58.154847 6.434077 -38.602218 6.214078 29.789464 47.222541 -9.953682 -10.606694 -10.029994 -1.865346 -11.965560 0.000000 0.000000 0.000000 3.109665 -58.154847 6.434077 -34.609907 -3.734112 -30.610797 55.113835 4.428347 -7.794973 -22.952291 0.148436 26.068942 0.000000 0.000000 0.000000 3.109665 -58.154847 6.434077 0.000000 0.000000 0.000000 11.206448 0.126067 -2.554001 8.467456 0.128417 -5.368924 0.000000 0.000000 0.000000 8.489929 0.128551 -5.368458 -3.549033 5.365447 1.579072 0.000000 0.000000 0.000000 8.489929 0.128551 -5.368458 -5.914317 -11.396581 -4.145976 -23.347101 9.645235 -36.446764 -1.115200 -43.763419 0.039120 0.000000 0.000000 0.000000 8.489929 0.128551 -5.368458 -4.707639 10.766309 2.133765 -41.787227 -26.098306 28.599059 -150.151942 68.738819 152.052537 0.000000 0.000000 0.000000 
-3.841546 83.185936 2.256416 0.000000 0.000000 0.000000 3.229604 -58.201107 6.538826 -38.701969 6.178034 29.792141 47.311604 -9.921256 -10.584437 -10.056664 -1.846806 -11.997527 0.000000 0.000000 0.000000 3.229604 -58.201107 6.538826 -34.751842 -3.613456 -30.615654 55.194226 4.482642 -7.790700 -22.922458 0.107012 26.188564 0.000000 0.000000 0.000000 3.229604 -58.201107 6.538826 0.000000 0.000001 0.000000 11.227416 0.152231 -2.512332 8.510469 0.182103 -5.283890 0.000000 0.000000 0.000000 8.532954 0.182194 -5.283410 -3.495541 5.377482 1.574927 0.000000 0.000000 0.000000 8.532954 0.182194 -5.283410 -5.926040 -11.422279 -4.222787 -23.520458 9.796240 -36.349348 -1.367452 -44.014333 -0.092807 0.000000 0.000000 0.000000 8.532954 0.182194 -5.283410 -4.380903 10.817081 1.921910 -41.835001 -25.699719 27.556362 -146.867700 68.921479 148.959951 0.000000 0.000000 0.000000 
-3.787197 83.120064 2.228619 0.000000 0.000000 0.000000 3.571498 -58.391444 6.917154 -38.813257 6.131358 29.700456 47.466953 -9.709278 -10.541819 -10.160551 -1.795354 -12.108298 0.000000 0.000000 0.000000 3.571498 -58.391444 6.917154 -35.184555 -3.281035 -30.710931 55.411853 4.706542 -7.790816 -22.839135 0.025443 26.413899 0.000000 0.000000 0.000000 3.571498 -58.391444 6.917154 0.000000 0.000000 0.000000 11.243939 0.213019 -2.437430 8.546361 0.302733 -5.136841 0.000000 0.000000 0.000000 8.568839 0.302875 -5.136374 -3.459243 5.388838 1.557362 0.000000 0.000000 0.000000 8.568839 0.302875 -5.136374 -5.953035 -11.533142 -4.473244 -23.680993 10.079544 -36.137619 -1.474660 -44.312976 -0.242777 0.000000 0.000000 0.000000 8.568839 0.302875 -5.136374 -3.963143 10.971538 1.657935 -41.951671 -24.993684 25.891984 -141.789482 69.007150 144.037816 0.000000 0.000000 0.000000 
-3.719916 83.044586 2.223391 0.000000 0.000000 0.000000 4.112742 -58.805634 7.629888 -38.749661 6.148645 29.422331 47.594691 -9.190230 -10.502709 -10.370006 -1.713078 -12.306385 0.000000 0.000000 0.000000 4.112742 -58.805634 7.629888 -35.945035 -2.757429 -30.984026 55.740064 5.206604 -7.787485 -22.683504 -0.038364 26.576555 0.000000 0.000000 0.000000 4.112742 -58.805634 7.629888 0.000000 0.000001 0.000000 11.227408 0.296233 -2.370944 8.517014 0.461071 -5.018309 0.000000 0.000000 0.000000 8.539489 0.461214 -5.017857 -3.430302 5.415870 1.518064 0.000000 0.000000 0.000000 8.539489 0.461214 -5.017857 -6.010991 -11.689439 -4.943664 -23.867010 10.489737 -35.847271 -1.358970 -44.669048 -0.392117 0.000000 0.000000 0.000000 8.539489 0.461214 -5.017857 -3.469765 11.203879 1.344714 -41.943174 -23.995587 23.804522 -135.738344 68.849290 138.137338 0.000000 0.000000 0.000000 
-3.645377 82.965637 2.251535 0.000000 0.000000 0.000000 4.784640 -59.496603 8.619513 -38.436135 6.262986 28.989939 47.709250 -8.364291 -10.483935 -10.717830 -1.595322 -12.591003 0.000000 0.000000 0.000000 4.784640 -59.496603 8.619513 -37.012990 -2.068430 -31.431216 56.161575 6.050073 -7.758420 -22.438391 -0.051674 26.577548 0.000000 0.000000 0.000000 4.784640 -59.496603 8.619513 0.000000 -0.000002 0.000000 11.182503 0.403161 -2.292583 8.432275 0.659806 -4.887329 0.000000 0.000000 0.000000 8.454717 0.659926 -4.886865 -3.413969 5.465155 1.453385 0.000000 0.000000 0.000000 8.454717 0.659926 -4.886865 -6.092174 -11.788072 -5.598546 -24.102775 10.923987 -35.592129 -0.963138 -44.842589 -0.530949 0.000000 0.000000 0.000000 8.454717 0.659926 -4.886865 -2.907589 11.524057 0.984578 -41.806014 -22.544969 21.296149 -129.012493 68.520116 131.583485 0.000000 0.000000 0.000000 
